<svg width="25" height="24" viewBox="0 0 25 24" fill="none" xmlns="http://www.w3.org/2000/svg">
<path d="M17.6974 7.9341L13.1616 5.24114C12.6225 4.91962 11.9505 4.91962 11.4114 5.24114L6.87469 7.9341C6.32899 8.26331 5.99674 8.85535 6.00002 9.49266V14.8777C5.99706 15.5146 6.32927 16.1063 6.87469 16.4353L11.4105 19.1274C11.9496 19.4487 12.6215 19.4487 13.1607 19.1274L17.6965 16.4353C18.2425 16.1063 18.5751 15.5142 18.5721 14.8768V9.49266C18.5753 8.85535 18.2431 8.26331 17.6974 7.9341Z" fill="white"/>
<path d="M17.7231 7.94056L13.1774 5.24167C12.6371 4.91944 11.9636 4.91944 11.4233 5.24167L6.87662 7.94056C6.32971 8.2705 5.99673 8.86384 6.00002 9.50255V14.8994C5.99705 15.5378 6.32999 16.1307 6.87662 16.4605L11.4224 19.1585C11.9627 19.4805 12.6361 19.4805 13.1765 19.1585L17.7222 16.4605C18.2695 16.1308 18.6028 15.5374 18.5997 14.8985V9.50255C18.603 8.86384 18.2701 8.2705 17.7231 7.94056ZM11.5817 18.8827L7.03591 16.1847C6.58669 15.9125 6.31308 15.4247 6.31498 14.8994V9.50255C6.3129 8.97725 6.58656 8.48936 7.03591 8.21728L11.5817 5.51839C12.0241 5.25445 12.5757 5.25445 13.0181 5.51839L17.5602 8.21728C17.9347 8.44407 18.1901 8.82438 18.2584 9.25678C18.1073 8.93547 17.7678 8.84717 17.3718 9.07473L13.0745 11.7363C12.5384 12.0485 12.1433 12.4008 12.1424 13.0471V18.3465C12.1424 18.7334 12.2981 18.9837 12.5384 19.0574C12.4597 19.0719 12.3799 19.0795 12.2999 19.0802C12.0471 19.08 11.799 19.0118 11.5817 18.8827Z" fill="#2F3A3E"/>
<path d="M16.5192 15.4096L15.3893 16.0854C15.359 16.0975 15.3388 16.1263 15.3375 16.1589V16.4559C15.3375 16.4922 15.362 16.5068 15.392 16.4895L16.5391 15.792C16.5672 15.7709 16.5807 15.7356 16.5737 15.7012V15.4405C16.5727 15.4069 16.5464 15.3924 16.5192 15.4096Z" fill="#3AB14A"/>
<path d="M14.1148 12.9218C14.1511 12.9036 14.1811 12.9218 14.182 12.9736L14.1856 13.3678C14.3215 13.306 14.4731 13.2876 14.6198 13.3151C14.6479 13.3223 14.6597 13.3605 14.6488 13.4059L14.5626 13.7519C14.556 13.7781 14.5425 13.8019 14.5235 13.821C14.5168 13.8276 14.5092 13.8331 14.5008 13.8373C14.4905 13.8429 14.4787 13.8448 14.4672 13.8428C14.3241 13.8111 14.1744 13.8351 14.0485 13.91C13.8643 13.9929 13.744 14.174 13.7388 14.3759C13.7388 14.5576 13.8296 14.6075 14.1466 14.613C14.5653 14.6202 14.7469 14.8028 14.7515 15.2251C14.7415 15.666 14.5382 16.0801 14.1956 16.3577L14.2029 16.7446C14.2022 16.7927 14.1773 16.8371 14.1366 16.8627L13.9077 16.9944C13.8714 17.0126 13.8414 16.9944 13.8405 16.9435V16.563C13.6443 16.6447 13.4454 16.6638 13.3183 16.6129C13.2946 16.6038 13.2837 16.5684 13.2937 16.5276L13.3764 16.1779C13.3827 16.1502 13.3969 16.125 13.4173 16.1052C13.4237 16.099 13.4311 16.0938 13.439 16.0898C13.4509 16.0845 13.4644 16.0845 13.4763 16.0898C13.6382 16.1337 13.8109 16.1118 13.9567 16.0289C14.1672 15.9274 14.304 15.7175 14.3119 15.484C14.3119 15.2878 14.2038 15.206 13.9486 15.2042C13.6189 15.2042 13.3128 15.1407 13.3064 14.6593C13.314 14.2387 13.5093 13.8436 13.8387 13.5821L13.8223 13.1861C13.8222 13.1374 13.8473 13.092 13.8886 13.0662L14.1148 12.9218Z" fill="white"/>
</svg>
