<svg width="25" height="24" viewBox="0 0 25 24" fill="none" xmlns="http://www.w3.org/2000/svg">
<path d="M7 16.6232L7.08717 16.5012L11.211 8.67646L11.2197 8.59363L9.40182 5.17906C9.24952 4.89302 8.82076 4.96534 8.77078 5.28553L7 16.6232Z" fill="#FFC24A"/>
<path d="M7.05145 16.5301L7.1174 16.4016L11.198 8.65882L9.38468 5.23036C9.23397 4.94732 8.85127 5.01947 8.80181 5.33631L7.05145 16.5301Z" fill="#FFA712"/>
<path d="M12.5449 11.1764L13.8984 9.79019L12.5445 7.20555C12.416 6.96089 12.0571 6.96018 11.9299 7.20555L11.2066 8.58509V8.70259L12.5449 11.1764Z" fill="#F4BD62"/>
<path d="M12.5208 11.1186L13.8366 9.77093L12.5208 7.26527C12.3958 7.02742 12.0922 7.0025 11.9686 7.24104L11.2414 8.64196L11.2197 8.71358L12.5208 11.1186Z" fill="#FFA50E"/>
<path d="M7 16.6232L7.03951 16.5834L7.18309 16.5251L12.4599 11.2679L12.5267 11.0859L11.2104 8.57751L7 16.6232Z" fill="#F6820C"/>
<path d="M12.7139 19.2745L17.4895 16.6111L16.1258 8.21219C16.0831 7.94941 15.7607 7.84552 15.5726 8.03394L7 16.6232L11.7482 19.2743C12.0483 19.4418 12.4138 19.4419 12.7139 19.2745Z" fill="#FDE068"/>
<path d="M17.4467 16.5888L16.0933 8.25362C16.051 7.99283 15.7829 7.88492 15.5963 8.07191L7.05295 16.6069L11.749 19.2317C12.0468 19.398 12.4095 19.3981 12.7074 19.232L17.4467 16.5888Z" fill="#FCCA3F"/>
<path d="M12.7139 19.1961C12.4138 19.3635 12.0483 19.3634 11.7482 19.1958L7.03824 16.5828L7 16.6232L11.7482 19.2743C12.0483 19.4419 12.4138 19.4419 12.7139 19.2745L17.4895 16.6111L17.4778 16.5392L12.7139 19.1961Z" fill="#EEAB37"/>
</svg>
