<svg width="25" height="24" viewBox="0 0 25 24" fill="none" xmlns="http://www.w3.org/2000/svg">
<path d="M19.1284 11.5584L12.8411 5.2716C12.4793 4.90947 11.892 4.90947 11.5297 5.2716L10.2242 6.57715L11.8803 8.23329C12.2652 8.10326 12.7065 8.19048 13.0134 8.49731C13.3216 8.80604 13.4082 9.25112 13.275 9.63727L14.8711 11.2334C15.2573 11.1003 15.7028 11.1865 16.0112 11.4953C16.4423 11.9262 16.4423 12.6246 16.0112 13.0557C15.5801 13.4869 14.8817 13.4869 14.4504 13.0557C14.1261 12.7312 14.046 12.255 14.2102 11.8556L12.7217 10.3671L12.7215 14.2842C12.8266 14.3363 12.9258 14.4057 13.0134 14.4929C13.4444 14.9238 13.4444 15.6221 13.0134 16.0536C12.5822 16.4846 11.8835 16.4846 11.453 16.0536C11.0219 15.6221 11.0219 14.9238 11.453 14.4929C11.5595 14.3866 11.6827 14.3061 11.8141 14.2521V10.2985C11.6827 10.2448 11.5596 10.1648 11.453 10.0577C11.1264 9.7316 11.0479 9.25239 11.2152 8.85139L9.58272 7.21862L5.27172 11.5293C4.90943 11.8918 4.90943 12.479 5.27172 12.8412L11.559 19.1281C11.921 19.4903 12.5081 19.4903 12.8705 19.1281L19.1284 12.8704C19.4905 12.5081 19.4905 11.9205 19.1284 11.5584Z" fill="#DE4C36"/>
</svg>
