<svg width="25" height="24" viewBox="0 0 25 24" fill="none" xmlns="http://www.w3.org/2000/svg">
<path d="M12.1464 8.6652C12.1464 8.71486 12.0967 8.71486 12.0967 8.71486H12.0471C11.9974 8.71486 11.9974 8.6652 11.9478 8.61553C11.9478 8.61553 11.8981 8.56587 11.8981 8.51621C11.8981 8.46654 11.8981 8.46654 11.9478 8.46654L12.0471 8.51621C12.0967 8.56587 12.1464 8.61553 12.1464 8.6652ZM11.2525 8.16856C11.2525 7.92024 11.1531 7.77125 11.0041 7.77125C11.0041 7.77125 11.0041 7.82091 10.9545 7.82091V7.92024H11.1035C11.1035 8.01957 11.1531 8.06923 11.1531 8.16856H11.2525ZM12.9907 7.92024C13.09 7.92024 13.1397 8.01957 13.1894 8.16856H13.2887C13.239 8.11889 13.239 8.06923 13.239 8.01957C13.239 7.9699 13.239 7.92024 13.1894 7.87058C13.1397 7.82091 13.09 7.77125 13.0404 7.77125C13.0404 7.77125 12.9907 7.82091 12.941 7.82091C12.941 7.87058 12.9907 7.87058 12.9907 7.92024ZM11.5008 8.71486C11.4511 8.71486 11.4511 8.71486 11.4511 8.6652C11.4511 8.61553 11.4511 8.56587 11.5008 8.51621C11.6001 8.51621 11.6498 8.46654 11.6498 8.46654C11.6994 8.46654 11.6994 8.51621 11.6994 8.51621C11.6994 8.56587 11.6498 8.61553 11.5504 8.71486H11.5008ZM10.9545 8.6652C10.7558 8.56587 10.7062 8.41688 10.7062 8.16856C10.7062 8.01957 10.7062 7.92024 10.8055 7.82091C10.8551 7.72158 10.9545 7.67192 11.0538 7.67192C11.1531 7.67192 11.2028 7.72158 11.3021 7.82091C11.3518 7.9699 11.4015 8.11889 11.4015 8.26789V8.31755V8.36721H11.4511V8.31755C11.5008 8.31755 11.5008 8.21822 11.5008 8.01957C11.5008 7.87058 11.5008 7.72158 11.4015 7.57259C11.3021 7.4236 11.2028 7.32427 11.0041 7.32427C10.8551 7.32427 10.7062 7.4236 10.6565 7.57259C10.5572 7.77125 10.5373 7.92024 10.5373 8.16856C10.5373 8.36721 10.6068 8.56587 10.8055 8.76453C10.8551 8.71486 10.9048 8.71486 10.9545 8.6652ZM17.1625 15.6678C17.2121 15.6678 17.2121 15.6479 17.2121 15.6033C17.2121 15.494 17.1625 15.3649 17.0135 15.2208C16.8645 15.0718 16.6162 14.9775 16.3182 14.9378C16.2685 14.9328 16.2189 14.9328 16.2189 14.9328C16.1692 14.9229 16.1692 14.9229 16.1195 14.9229C16.0699 14.9179 15.9705 14.908 15.9209 14.898C16.0699 14.4361 16.1195 14.0289 16.1195 13.6713C16.1195 13.1747 16.0202 12.827 15.8215 12.5291C15.6229 12.2311 15.4242 12.0821 15.1759 12.0324C15.1262 12.0821 15.1262 12.0821 15.1262 12.1317C15.3746 12.2311 15.6229 12.4297 15.7719 12.7277C15.9209 13.0754 15.9705 13.3733 15.9705 13.721C15.9705 13.9991 15.9209 14.4113 15.7222 14.9378C15.5236 15.0172 15.3249 15.201 15.1759 15.489C15.1759 15.5337 15.1759 15.5586 15.2256 15.5586C15.2256 15.5586 15.2752 15.5139 15.3249 15.4294C15.4242 15.345 15.4739 15.2606 15.5732 15.1761C15.7222 15.0917 15.8215 15.047 15.9705 15.047C16.2189 15.047 16.4672 15.0818 16.6162 15.1513C16.8148 15.2159 16.9141 15.2854 16.9638 15.3649C17.0135 15.4394 17.0631 15.5089 17.1128 15.5735C17.1128 15.638 17.1625 15.6678 17.1625 15.6678V15.6678ZM12.5934 8.46654C12.5437 8.41688 12.5437 8.31755 12.5437 8.21822C12.5437 8.01957 12.5437 7.92024 12.643 7.77125C12.7424 7.67192 12.8417 7.62226 12.941 7.62226C13.09 7.62226 13.1894 7.72158 13.2887 7.82091C13.3383 7.9699 13.388 8.06923 13.388 8.21822C13.388 8.46654 13.2887 8.61553 13.09 8.6652C13.09 8.6652 13.1397 8.71486 13.1894 8.71486C13.2887 8.71486 13.3383 8.76453 13.4377 8.81419C13.4873 8.51621 13.537 8.31755 13.537 8.06923C13.537 7.77125 13.4873 7.57259 13.388 7.4236C13.239 7.27461 13.09 7.22494 12.8914 7.22494C12.7424 7.22494 12.5934 7.27461 12.4444 7.37394C12.3451 7.52293 12.2954 7.62226 12.2954 7.77125C12.2954 8.01957 12.3451 8.21822 12.4444 8.41688C12.4941 8.41688 12.5437 8.46654 12.5934 8.46654ZM13.1894 9.26117C12.5437 9.70814 12.0471 9.9068 11.6498 9.9068C11.3021 9.9068 10.9545 9.75781 10.6565 9.50949C10.7062 9.60881 10.7558 9.70814 10.8055 9.75781L11.1035 10.0558C11.3021 10.2544 11.5504 10.3538 11.7988 10.3538C12.1464 10.3538 12.5437 10.1551 13.0404 9.80747L13.4873 9.50949C13.5867 9.41016 13.686 9.31083 13.686 9.16184C13.686 9.11217 13.686 9.06251 13.6363 9.06251C13.5867 8.96318 13.3383 8.81419 12.8417 8.6652C12.3947 8.46654 12.0471 8.36721 11.8484 8.36721C11.6994 8.36721 11.4511 8.46654 11.1035 8.6652C10.8055 8.86385 10.6068 9.06251 10.6068 9.26117C10.6068 9.26117 10.6565 9.31083 10.7062 9.41016C11.0041 9.65848 11.3021 9.80747 11.6001 9.80747C11.9974 9.80747 12.4941 9.60881 13.1397 9.11217V9.2115C13.1894 9.2115 13.1894 9.26117 13.1894 9.26117ZM14.3316 19.2933C14.5303 19.6668 14.8779 19.8545 15.2752 19.8545C15.3746 19.8545 15.4739 19.8396 15.5732 19.8098C15.6725 19.7899 15.7719 19.7552 15.8215 19.7154C15.8712 19.6807 15.9209 19.6459 15.9705 19.6062C16.0699 19.5714 16.0699 19.5466 16.1195 19.5217L16.9638 18.7917C17.1625 18.6332 17.3611 18.4947 17.6094 18.3745C17.8081 18.2553 18.0068 18.1758 18.1061 18.1311C18.2551 18.0914 18.3544 18.0318 18.4537 17.9524C18.5034 17.8779 18.5531 17.7835 18.5531 17.6643C18.5531 17.5203 18.4537 17.411 18.3544 17.3316C18.2551 17.2521 18.1557 17.1975 18.0564 17.1627C17.9571 17.1279 17.8578 17.0485 17.7088 16.9144C17.6094 16.7853 17.5101 16.6065 17.4605 16.373L17.4108 16.085C17.3611 15.9509 17.3611 15.8516 17.3115 15.7969C17.3115 15.782 17.3115 15.7771 17.2618 15.7771C17.2121 15.7771 17.1128 15.8218 17.0631 15.9062C16.9638 15.9906 16.8645 16.085 16.7652 16.1843C16.7155 16.2836 16.5665 16.373 16.4672 16.4575C16.3182 16.5419 16.1692 16.5866 16.0699 16.5866C15.6725 16.5866 15.4739 16.4773 15.3249 16.2638C15.2256 16.1049 15.1759 15.9211 15.1262 15.7125C15.0269 15.6281 14.9773 15.5834 14.8779 15.5834C14.6296 15.5834 14.5303 15.8416 14.5303 16.3631V16.527V17.1031V17.5451V17.7587V17.9077C14.5303 17.9524 14.4806 18.0517 14.4806 18.2056C14.431 18.3596 14.431 18.5344 14.431 18.7321L14.3316 19.2833V19.2918V19.2933ZM7.13035 19.0291C7.59223 19.0966 8.12363 19.2411 8.72456 19.4616C9.3255 19.6802 9.69301 19.7944 9.8271 19.7944C10.1748 19.7944 10.4628 19.6404 10.7012 19.3429C10.7509 19.2466 10.7509 19.1334 10.7509 19.0032C10.7509 18.5339 10.4678 17.9404 9.9016 17.2203L9.56388 16.7684C9.49436 16.674 9.40993 16.53 9.30067 16.3363C9.19637 16.1426 9.10201 15.9936 9.02751 15.8893C8.96295 15.7751 8.85866 15.6609 8.72456 15.5466C8.59544 15.4324 8.44645 15.3579 8.28255 15.3182C8.07397 15.3579 7.92994 15.4274 7.86041 15.5218C7.79088 15.6162 7.75115 15.7205 7.74122 15.8297C7.72632 15.934 7.69652 16.0035 7.64686 16.0383C7.59719 16.0681 7.51276 16.0929 7.39854 16.1178C7.3737 16.1178 7.32901 16.1178 7.26444 16.1227H7.13035C6.86713 16.1227 6.68834 16.1525 6.59398 16.2022C6.46982 16.3462 6.40526 16.5101 6.40526 16.6839C6.40526 16.7634 6.42512 16.8975 6.46485 17.0862C6.50459 17.27 6.52445 17.419 6.52445 17.5233C6.52445 17.7269 6.46485 17.9305 6.34069 18.1341C6.21653 18.3477 6.15197 18.5066 6.15197 18.6198C6.20164 18.8125 6.52942 18.9481 7.13035 19.0276V19.0291ZM8.78416 14.5131C8.78416 14.1704 8.87356 13.793 9.05731 13.346C9.2361 12.899 9.41489 12.6011 9.58872 12.4024C9.57878 12.3527 9.55395 12.3527 9.51422 12.3527L9.46456 12.3031C9.32053 12.4521 9.14671 12.7997 8.93812 13.2964C8.72953 13.7433 8.62027 14.1555 8.62027 14.4585C8.62027 14.682 8.6749 14.8757 8.77423 15.0445C8.88349 15.2084 9.14671 15.4468 9.56388 15.7498L10.0903 16.0924C10.6515 16.5791 10.9495 16.9169 10.9495 17.1155C10.9495 17.2198 10.8998 17.3241 10.7509 17.4383C10.6515 17.5575 10.5174 17.6171 10.4032 17.6171C10.3933 17.6171 10.3883 17.6271 10.3883 17.6519C10.3883 17.6569 10.438 17.7562 10.5423 17.9499C10.7509 18.233 11.1978 18.372 11.7938 18.372C12.8864 18.372 13.7307 17.925 14.3763 17.0311C14.3763 16.7828 14.3763 16.6288 14.3267 16.5642V16.3805C14.3267 16.0577 14.3763 15.8143 14.4756 15.6554C14.575 15.4965 14.6743 15.422 14.8233 15.422C14.9226 15.422 15.022 15.4567 15.1213 15.5312C15.1709 15.1488 15.1709 14.8161 15.1709 14.5181C15.1709 14.0662 15.1709 13.6937 15.0716 13.346C15.022 13.048 14.9226 12.7997 14.8233 12.6011C14.724 12.4521 14.6246 12.3031 14.5253 12.1541C14.426 12.0051 14.3763 11.8561 14.277 11.7071C14.2273 11.5085 14.1777 11.3595 14.1777 11.1111C14.0287 10.8628 13.9293 10.6145 13.7804 10.3662C13.681 10.1179 13.5817 9.86955 13.4824 9.67089L13.0354 10.0185C12.5388 10.3662 12.1414 10.5152 11.7938 10.5152C11.4958 10.5152 11.2475 10.4655 11.0985 10.2669L10.8005 10.0185C10.8005 10.1675 10.7509 10.3662 10.6515 10.5648L10.3386 11.1608C10.1996 11.5085 10.1251 11.7071 10.1102 11.8561C10.0903 11.9554 10.0754 12.0548 10.0655 12.0548L9.69301 12.7997C9.29073 13.5447 9.08711 14.235 9.08711 14.8061C9.08711 14.9204 9.09704 15.0396 9.11691 15.1588C8.89342 15.0048 8.78416 14.7912 8.78416 14.5131V14.5131ZM12.3401 19.2113C11.6945 19.2113 11.1978 19.2987 10.8502 19.4721V19.4572C10.6019 19.7552 10.3237 19.9091 9.93636 19.9091C9.69301 19.9091 9.3106 19.8148 8.79409 19.626C8.27262 19.4472 7.81075 19.3102 7.40847 19.2198C7.36874 19.2084 7.27934 19.1915 7.13532 19.1686C6.99626 19.1463 6.86713 19.1234 6.75291 19.1006C6.64861 19.0782 6.52942 19.0445 6.40029 18.9988C6.27613 18.9595 6.1768 18.9084 6.10231 18.8463C6.03377 18.7837 6 18.7132 6 18.6342C6 18.5548 6.01689 18.4699 6.05066 18.3795C6.08244 18.3248 6.11721 18.2702 6.15197 18.2205C6.18674 18.1659 6.21653 18.1162 6.2364 18.0666C6.2662 18.0219 6.28606 17.9772 6.30593 17.9275C6.3258 17.8828 6.34566 17.8381 6.35559 17.7835C6.36553 17.7338 6.37546 17.6842 6.37546 17.6345C6.37546 17.5848 6.35559 17.4359 6.31586 17.1726C6.27613 16.9144 6.25627 16.7505 6.25627 16.681C6.25627 16.4624 6.30593 16.2886 6.41519 16.1645C6.52445 16.0403 6.62875 15.9757 6.73801 15.9757H7.30914C7.35384 15.9757 7.42337 15.9509 7.52766 15.8913C7.56243 15.8118 7.59223 15.7473 7.61209 15.6877C7.63692 15.6281 7.64686 15.5834 7.65679 15.5635C7.66672 15.5337 7.67665 15.5039 7.68659 15.4791C7.70645 15.4443 7.73128 15.4046 7.76605 15.3649C7.72632 15.3152 7.70645 15.2506 7.70645 15.1712C7.70645 15.1165 7.70645 15.0669 7.71639 15.0371C7.71639 14.8583 7.80081 14.605 7.9796 14.2723L8.15343 13.9594C8.29745 13.6912 8.40671 13.4925 8.48618 13.2939C8.57061 13.0952 8.66 12.7972 8.75933 12.3999C8.83879 12.0523 9.02751 11.7046 9.3255 11.357L9.69798 10.91C9.95623 10.612 10.1251 10.3637 10.2194 10.165C10.3138 9.96639 10.3635 9.71807 10.3635 9.51942C10.3635 9.42009 10.3386 9.12211 10.284 8.62547C10.2343 8.12883 10.2095 7.63219 10.2095 7.18521C10.2095 6.83757 10.2393 6.58925 10.3039 6.34093C10.3684 6.09261 10.4827 5.84429 10.6515 5.64563C10.8005 5.44698 10.9992 5.24832 11.2972 5.14899C11.5951 5.04966 11.9428 5 12.3401 5C12.4891 5 12.6381 5 12.7871 5.04966C12.9361 5.04966 13.1347 5.09933 13.383 5.19866C13.5817 5.29798 13.7804 5.39731 13.9293 5.5463C14.128 5.6953 14.277 5.94361 14.426 6.19193C14.5253 6.48992 14.6246 6.7879 14.6743 7.18521C14.724 7.43353 14.724 7.68185 14.7736 8.0295C14.7736 8.32748 14.8233 8.52614 14.8233 8.67513C14.873 8.82412 14.873 9.02278 14.9226 9.2711C14.9723 9.46975 15.022 9.66841 15.1213 9.8174C15.2206 10.0161 15.3199 10.2147 15.4689 10.4134C15.6179 10.6617 15.8166 10.91 16.0152 11.208C16.4622 11.7046 16.8099 12.2509 17.0085 12.7972C17.2568 13.2939 17.4058 13.9395 17.4058 14.6298C17.4058 14.9725 17.3562 15.3053 17.2568 15.6281C17.3562 15.6281 17.4058 15.6678 17.4555 15.7373C17.5051 15.8069 17.5548 15.9559 17.6045 16.1893L17.6541 16.5568C17.7038 16.6661 17.7535 16.7704 17.9025 16.8597C18.0018 16.9491 18.1011 17.0236 18.2501 17.0832C18.3494 17.1329 18.4984 17.2024 18.5978 17.2918C18.6971 17.3912 18.7467 17.4954 18.7467 17.6047C18.7467 17.7736 18.6971 17.8977 18.5978 17.9871C18.4984 18.0864 18.3991 18.156 18.2501 18.2007C18.1508 18.2503 17.9521 18.3497 17.6541 18.4897C17.4058 18.6367 17.1575 18.815 16.9092 19.0261L16.4125 19.4487C16.2139 19.6424 16.0152 19.7815 15.8662 19.8659C15.7172 19.9553 15.5186 20 15.3199 20L14.9723 19.9603C14.575 19.856 14.3267 19.6573 14.1777 19.3544C13.383 19.258 12.7374 19.2103 12.3401 19.2103" fill="black"/>
</svg>
