<svg width="25" height="24" viewBox="0 0 25 24" fill="none" xmlns="http://www.w3.org/2000/svg">
<path d="M17.825 5H6.575C5.70515 5 5 5.70515 5 6.575V17.825C5 18.6948 5.70515 19.4 6.575 19.4H17.825C18.6948 19.4 19.4 18.6948 19.4 17.825V6.575C19.4 5.70515 18.6948 5 17.825 5Z" fill="#092E20"/>
<path d="M15.4837 10.2986V14.0239C15.4837 15.3074 15.3898 15.9231 15.1081 16.4553C14.8471 16.9667 14.5027 17.2901 13.7932 17.6449L12.301 16.9353C13.0106 16.6014 13.3549 16.3093 13.574 15.8605C13.8036 15.4013 13.8767 14.8691 13.8767 13.4709V10.2986H15.4837ZM12.9272 7.81693V15.2553C12.1028 15.4118 11.4976 15.4744 10.8402 15.4744C8.87836 15.4744 7.85573 14.5875 7.85573 12.8865C7.85573 11.2482 8.94103 10.1839 10.621 10.1839C10.8819 10.1839 11.0801 10.2047 11.3202 10.2673V7.81693H12.9272ZM10.7776 11.4778C9.96367 11.4778 9.49405 11.9787 9.49405 12.8552C9.49405 13.7109 9.9428 14.1805 10.7672 14.1805C10.9445 14.1805 11.0906 14.17 11.3202 14.1388V11.5612C11.1324 11.4986 10.9759 11.4778 10.7776 11.4778ZM15.4837 7.82547V9.47423H13.8767V7.82547H15.4837Z" fill="#FFFFFD"/>
</svg>
