<svg width="25" height="24" viewBox="0 0 25 24" fill="none" xmlns="http://www.w3.org/2000/svg">
<path d="M8.82384 17.8225C8.20908 17.3388 7.55306 16.8753 7.10487 16.2223C6.16153 15.0707 5.43541 13.7376 4.93899 12.3365C4.63879 11.4253 4.53608 10.4485 4.14891 9.57272C3.74442 8.93643 4.21858 8.24135 4.91545 8.03921C5.22546 7.97947 5.77097 7.68677 5.11252 7.89619C4.52205 8.32917 4.46515 7.50278 5.07051 7.45043C5.48365 7.39564 5.63576 7.05755 5.49431 6.75324C5.05067 6.4638 6.56971 6.14629 5.80528 5.71457C5.0095 4.85567 6.91888 4.69037 6.44769 5.66591C6.33506 6.41599 7.78233 5.52816 7.44624 6.39445C7.78771 6.81055 8.72451 6.48935 8.70097 7.07275C9.19824 7.10695 9.36892 7.52506 9.83527 7.55725C10.3193 7.77575 11.196 7.9477 11.3604 8.49278C10.8806 8.87257 9.76972 7.70819 9.71609 8.75963C9.86123 10.3132 9.82418 11.9135 10.3924 13.3929C10.6611 14.2885 11.313 14.9935 11.9014 15.6912C12.4646 16.3744 13.2275 16.8556 14.0051 17.2605C14.6871 17.5821 15.4223 17.7952 16.1657 17.9293C16.4671 17.6988 16.9994 16.8416 17.4694 17.2028C17.4921 17.6094 16.5364 18.0522 17.4246 18.0072C17.9465 17.8497 18.3082 18.4104 18.7378 17.9045C19.1336 18.3734 20.383 17.6051 20.1013 18.5635C19.7204 18.8092 19.165 18.6607 18.7836 18.9989C18.1548 18.6847 17.6542 19.2797 16.9578 19.2046C16.1847 19.3431 15.3979 19.3988 14.6142 19.4C13.3281 19.2986 12.0149 19.2557 10.7915 18.8079C10.1021 18.6076 9.42962 18.215 8.82384 17.8225ZM9.90989 18.2934C10.5828 18.5841 11.2409 18.8908 11.9786 18.9836C13.1487 19.146 14.3572 19.3967 15.5315 19.1683C15.0001 18.9284 14.4505 19.2615 13.921 18.9968C13.2861 19.1333 12.6045 18.9617 11.9587 18.8772C11.2248 18.5503 10.4324 18.3256 9.74502 17.9008C8.88569 17.5871 10.1891 18.3033 10.4212 18.3614C10.9581 18.6661 9.83073 18.2051 9.67155 18.0786C9.22178 17.8262 9.16446 17.879 9.62711 18.135C9.72021 18.1895 9.81225 18.2468 9.90989 18.2934ZM8.62919 17.3883C9.28152 17.6299 8.62634 16.9298 8.32783 16.9702C8.19547 16.7405 7.82191 16.5954 8.08537 16.4721C7.61164 16.6367 7.58895 15.8466 7.36633 15.9596C6.86495 15.8013 7.17127 15.2405 6.57383 14.8959C6.51936 14.533 5.9805 14.2184 5.80897 13.6712C5.73308 13.3909 5.19992 12.5864 5.52735 13.3351C5.80602 14.0559 6.29632 14.6736 6.7045 15.29C7.02117 15.8771 7.39557 16.4911 7.97243 16.8573C8.16707 17.044 8.35465 17.3297 8.62919 17.3883ZM6.75074 15.3255C6.77332 15.2269 6.86991 15.5386 6.75074 15.3255V15.3255ZM9.41062 17.6778C9.55491 17.6131 9.20278 17.5962 9.41062 17.6778V17.6778ZM9.76433 17.8069C9.72771 17.6287 9.60273 17.9066 9.76433 17.8069V17.8069ZM10.2077 17.9916C10.4184 17.7907 9.88234 17.8649 10.2077 17.9916V17.9916ZM10.9671 18.415C11.0954 18.2257 10.5568 18.3437 10.9671 18.415V18.415ZM9.50878 17.3983C9.83611 17.1863 9.0853 17.3953 9.50878 17.3983V17.3983ZM9.84107 17.564C9.83157 17.4522 9.72274 17.6142 9.84107 17.564V17.564ZM11.5023 18.6009C11.7695 18.7696 13.0622 18.9704 12.2528 18.6702C12.117 18.6987 10.7519 18.2839 11.5023 18.6009ZM8.86511 16.5467C8.83914 16.4346 8.45028 16.4226 8.86511 16.5467V16.5467ZM9.63819 16.9979C9.8398 16.8573 9.22051 16.8894 9.63819 16.9979V16.9979ZM10.2888 17.3966C10.5778 17.2877 9.82049 17.2873 10.2888 17.3966V17.3966ZM8.55003 16.2041C8.86342 16.4445 9.81426 16.235 9.02999 16.0607C8.67332 15.8706 7.8693 15.7403 8.41734 16.1753L8.55003 16.2041ZM10.7296 17.5343C10.8603 17.312 10.182 17.4072 10.7296 17.5343V17.5343ZM10.0674 17.0081C10.8335 17.2246 9.42297 16.5232 9.87823 16.9281L9.97924 16.9739L10.0674 17.0081ZM11.3952 17.7755C12.1208 17.7825 10.7396 17.6753 11.3952 17.7755V17.7755ZM8.27094 15.7843C8.24244 15.6491 8.09202 15.7955 8.27094 15.7843V15.7843ZM12.6227 18.464C12.642 18.22 12.3859 18.6459 12.6227 18.464V18.464ZM9.50952 16.5426C9.4654 16.414 9.28279 16.5372 9.50952 16.5426V16.5426ZM8.33976 15.6995C8.75628 15.6743 7.76913 15.516 8.33976 15.6995V15.6995ZM6.95393 14.8038C6.902 14.6039 6.50078 14.4447 6.95393 14.8038V14.8038ZM10.5919 17.1125C10.5157 17.0254 10.556 17.1314 10.5919 17.1125V17.1125ZM12.8559 18.502C12.849 18.3688 12.7326 18.5523 12.8559 18.502V18.502ZM10.3915 16.9055C10.4324 16.734 10.0361 16.8535 10.3915 16.9055V16.9055ZM8.70467 15.8364C9.01479 15.8033 8.20782 15.6268 8.70467 15.8364V15.8364ZM11.558 17.6094C12.0413 17.418 11.0871 17.5162 11.558 17.6094V17.6094ZM10.074 16.6021C10.6306 16.6737 9.41146 16.2231 9.95159 16.5616L10.074 16.6021ZM12.0086 17.7916C12.5286 17.4811 12.3571 18.5194 12.8907 17.8794C13.4167 17.4952 12.4362 18.3544 13.0845 17.9479C13.5537 17.6341 14.2463 18.0967 14.6838 18.2472C14.9984 18.2319 15.3044 18.5194 15.6272 18.3444C16.2482 18.177 14.4126 18.0963 14.8937 17.7998C14.3255 17.9652 13.9058 17.6027 13.6262 17.2387C12.9887 17.0914 12.2519 16.7657 11.9336 16.2013C11.8038 15.9897 12.1208 16.2313 11.8215 15.885C11.4376 15.5435 11.2459 15.1555 10.9881 14.7404C10.6801 14.5762 10.6438 14.0926 10.6129 14.7243C10.6154 14.3255 10.241 14.0571 10.1495 14.1685C10.1478 13.7846 10.5503 13.9771 10.2687 13.6931C10.2081 13.2951 10.0085 12.8804 9.94863 12.4309C9.85553 12.2144 9.93544 11.7506 9.63038 12.2408C9.51945 12.7591 9.59365 11.6042 9.76644 11.9848C9.99318 11.5964 9.68474 11.6421 9.67239 11.6957C9.82007 11.368 9.76602 10.9028 9.63366 11.0801C9.7124 10.7326 9.75821 9.80114 9.51617 9.96644C9.66289 9.6028 9.79452 8.3031 9.15697 8.79879C8.89889 8.80248 8.45154 8.89242 8.24043 8.99755C8.903 9.36287 8.17362 9.12949 7.9035 9.07133C7.86846 9.40942 7.6013 9.26344 7.26732 9.26671C7.8009 9.33269 7.00755 9.81222 6.70207 9.62592C6.30455 9.8156 7.04471 10.2898 6.70989 10.4365C6.75116 10.6571 6.10126 10.3566 6.15203 10.867C5.76643 10.7045 6.09925 11.4723 6.2922 11.2125C6.94823 11.3903 6.75401 11.7948 6.77047 12.1794C6.66365 12.4033 6.2427 11.6529 6.67685 11.6875C6.33422 11.1312 6.29801 11.4863 6.01343 11.7448C5.94746 11.7634 6.73912 12.1126 6.24228 12.285C6.67938 12.3526 6.69215 12.7353 6.78124 12.9773C7.04386 13.251 6.98982 12.675 7.30448 13.0041C7.1053 12.7109 6.25051 12.1781 6.93873 12.3489C6.93503 12.0541 6.81417 11.8162 7.02528 11.8219C7.23439 11.4438 6.80636 12.7546 7.27724 12.2739C7.4075 12.217 7.44012 11.8954 7.67434 12.3044C8.01444 12.6392 7.79721 12.8816 7.31725 12.5748C7.40296 12.8664 7.95924 12.9702 7.85453 13.4259C7.96536 13.8267 8.12042 13.679 8.25563 13.6559C8.36161 14.0452 8.42188 13.759 8.42684 13.5735C8.91208 13.6774 8.79829 13.9643 8.9504 14.1648C9.2848 14.3156 8.47171 13.1417 9.04571 13.8118C9.6497 14.3573 9.27245 14.5849 8.73032 14.4975C9.07337 14.4698 9.18378 14.9614 9.61307 14.9441C10.0044 15.1304 10.2695 15.8454 9.59492 15.5477C9.36111 15.3366 8.53272 15.0764 9.20943 15.4776C9.83368 15.767 10.3301 15.9398 10.9325 16.3031C11.3634 16.6107 11.5497 16.9632 11.713 17.0329C11.3506 17.206 10.6212 16.8948 11.1629 16.7995C10.8248 16.7381 10.4447 16.567 10.7684 16.988C11.0438 17.2181 11.7435 17.1937 11.8693 17.2197C11.7629 17.4539 11.5803 17.4725 11.8734 17.4906C11.5464 17.665 11.9786 17.6922 12.0086 17.7916ZM11.3398 15.9027C11.1407 15.6945 11.0892 15.3049 11.3044 15.6437C11.4149 15.6883 11.6578 16.2808 11.3398 15.9027ZM13.5182 17.2865C13.6423 17.2782 13.5219 17.3808 13.5182 17.2865V17.2865ZM11.0257 15.3923C11.0178 15.0776 11.0974 15.6351 11.0257 15.3923V15.3923ZM10.8092 15.1012C10.5585 14.6175 11.1246 15.2381 10.8092 15.1012V15.1012ZM8.18512 13.2903C8.33237 13.251 8.25775 13.5417 8.18512 13.2903V13.2903ZM10.2736 14.422C10.3639 14.0827 10.3796 14.7066 10.2736 14.422V14.422ZM8.79829 13.3961C8.69443 13.209 9.01563 13.5719 8.79829 13.3961V13.3961ZM10.0641 13.8019C9.82703 13.2708 10.2324 13.5116 10.1169 13.8889L10.0641 13.8019ZM7.88091 12.346C7.77494 12.1716 7.59972 11.6603 7.65619 11.5041C7.70685 11.7584 8.19673 12.5983 7.89611 11.8521C7.56425 11.2266 8.29321 12.0548 8.36826 12.2112C8.40331 12.3662 8.16327 12.1687 8.32572 12.5328C8.02932 12.1184 8.15092 12.7616 7.88091 12.346ZM7.20631 11.8809C7.23397 11.4756 7.36053 12.1588 7.20631 11.8809V11.8809ZM7.50978 11.9856C7.6545 11.6797 7.75509 12.4119 7.50978 11.9856V11.9856ZM6.77955 11.4208C6.52844 11.1708 6.34657 10.9408 6.79148 11.2657C6.96258 11.2723 6.41053 10.7425 6.83275 11.0975C7.2764 11.1783 7.05167 11.8253 6.77955 11.4208ZM7.16303 11.4109C7.30902 11.2661 7.24051 11.5531 7.16303 11.4109V11.4109ZM7.39927 11.4863C7.17781 11.0719 7.66769 11.6603 7.39927 11.4863V11.4863ZM6.93007 11.0381C6.19984 10.3878 7.84745 11.3778 7.04925 11.1585L6.93007 11.0381ZM9.0226 12.2536C8.70635 12.0643 8.93847 10.9198 9.04656 11.7024C9.35372 11.603 9.02956 12.1069 9.25841 12.1019C9.22262 12.4197 9.11992 12.5341 9.0226 12.2536ZM9.79653 12.7113C9.82745 12.3662 9.86165 12.9472 9.79653 12.7113V12.7113ZM9.66216 12.5781C9.69678 12.4309 9.66543 12.7517 9.66216 12.5781V12.5781ZM7.0731 10.8245C6.60391 10.1771 8.43666 11.4793 7.37372 10.9886C7.26278 10.9594 7.12883 10.9491 7.0731 10.8245ZM8.56364 11.6146C8.51921 11.0695 8.66265 11.7048 8.56364 11.6146V11.6146ZM9.69509 12.3406C9.78249 12.0301 9.70174 12.546 9.69509 12.3406V12.3406ZM7.1453 10.5775C7.42407 10.5178 8.3006 11.067 7.49574 10.7342C7.40634 10.6352 7.21539 10.6802 7.1453 10.5775ZM9.53961 11.7708C9.56937 11.2134 9.70628 11.4381 9.54087 11.8508L9.53961 11.7708ZM7.35272 10.3834C7.4665 10.2167 7.05083 9.63003 7.41246 10.173C7.56879 10.2971 7.86476 10.3808 7.60341 10.4332C8.01444 10.7957 7.50324 10.5314 7.35272 10.3834ZM9.42128 11.5968C9.49971 10.9618 9.49063 11.9687 9.42128 11.5968V11.5968ZM7.11522 9.79702C7.20219 9.75987 7.16134 9.91282 7.11522 9.79702V9.79702ZM7.65492 10.1182C7.79383 9.82668 7.911 10.4431 7.65492 10.1182V10.1182ZM9.17681 10.9647C9.17555 10.853 9.20563 11.1275 9.17681 10.9647V10.9647ZM9.08857 10.7697C8.87746 10.2485 9.28522 11.0455 9.08857 10.7697V10.7697ZM8.95905 10.4278C8.92369 10.2126 9.07949 10.6984 8.95905 10.4278V10.4278ZM9.17016 10.0848C9.02503 9.82953 9.3533 8.95913 9.39003 9.49893C9.23698 9.91947 9.34591 10.1545 9.45221 9.59045C9.64938 9.1468 9.40977 10.4667 9.17016 10.0848ZM9.38708 8.79055C9.4502 8.71297 9.40112 8.88408 9.38708 8.79055V8.79055ZM9.02471 15.9291C8.93889 15.8541 9.03579 15.9765 9.02471 15.9291V15.9291ZM9.77098 16.3064C10.1861 16.4132 10.1841 16.242 9.80888 16.1909C9.60727 16.0033 8.97024 15.8042 9.54045 16.1678C9.57803 16.2635 9.6972 16.261 9.77098 16.3064ZM8.29733 15.3275C8.52575 15.4983 9.15866 15.8107 8.62307 15.3927C8.80368 15.1828 8.27748 15.0711 8.45197 14.9305C8.0079 14.6587 8.10142 14.6831 8.41281 14.6917C7.87922 14.453 8.48986 14.4711 8.46104 14.3487C8.25532 14.3082 7.43885 13.9858 7.91923 14.3751C7.43104 14.1264 7.80291 14.4678 7.65534 14.4319C7.15596 14.2959 8.09983 14.8122 7.57618 14.6839C7.86234 14.9106 8.34683 15.2653 7.69693 14.9238C7.61164 15.0471 8.16211 15.234 8.29733 15.3275ZM9.0778 15.7761C10.0266 16.0817 8.61231 15.4021 9.0778 15.7761V15.7761ZM13.0733 18.1965C13.0856 18.008 12.9438 18.3572 13.0733 18.1965V18.1965ZM13.484 18.3693C13.7029 18.1573 13.4931 18.7073 13.8468 18.3173C13.8505 18.0381 13.8361 17.8733 13.4403 18.2125C13.3309 18.2732 13.2824 18.53 13.484 18.3693ZM6.96512 14.2753C6.89788 14.011 6.49381 14.0122 6.96512 14.2753V14.2753ZM7.40338 14.5626C7.24051 14.2926 6.82241 14.3182 7.40338 14.5626V14.5626ZM9.89839 16.0672C10.1421 16.2837 11.0171 16.226 10.194 16.094C10.0723 15.9138 9.42054 15.9571 9.89839 16.0672ZM13.3277 18.1854C13.7025 17.8707 12.9644 18.3256 13.3277 18.1854V18.1854ZM14.1074 18.721C14.1098 18.6199 13.9458 18.7651 14.1074 18.721V18.721ZM14.1087 18.5795C14.5238 18.14 13.7066 18.6055 14.1087 18.5795V18.5795ZM5.88645 13.3723C5.53274 12.8676 5.66669 12.6408 5.32532 12.2285C5.26051 11.9131 4.73981 11.1981 5.05605 11.9555C5.34548 12.3987 5.4313 13.0849 5.88645 13.3723ZM13.9783 18.4398C14.7424 17.9462 13.665 18.225 13.9783 18.4398V18.4398ZM14.5614 18.6682C14.944 18.3399 14.3194 18.5997 14.5614 18.6682V18.6682ZM6.83518 13.7173C6.94453 13.5545 6.5524 13.6963 6.83518 13.7173V13.7173ZM14.4397 18.5123C14.81 18.2736 14.3544 18.3103 14.3726 18.5341L14.4397 18.5123ZM9.41431 15.3448C9.40154 15.1832 9.21851 15.3584 9.41431 15.3448V15.3448ZM9.72475 15.5234C9.62584 15.3238 9.57307 15.5547 9.72475 15.5234V15.5234ZM15.0339 18.6736C15.5084 18.3313 14.7465 18.6079 14.9345 18.7387L15.0339 18.6736ZM14.8521 18.5857C15.2388 18.262 14.4442 18.7292 14.8521 18.5857V18.5857ZM15.7805 19.2038C16.04 19.0301 15.4652 19.1477 15.7805 19.2038V19.2038ZM7.0731 13.5999C7.42069 13.6778 8.46305 14.4562 7.8483 13.6539C7.53332 13.5607 7.72216 12.7909 7.40095 12.9269C7.6166 13.2873 7.57818 13.4403 7.12546 13.2135C6.55694 12.9356 6.80594 13.3509 6.9173 13.4655C6.76551 13.5001 7.11764 13.597 7.0731 13.5999ZM5.48861 12.3485C5.55079 12.0907 4.91503 10.9317 5.18842 11.7675C5.2869 11.9427 5.27666 12.2746 5.48861 12.3485ZM8.39708 14.1417C8.21774 13.992 8.38842 14.1202 8.39708 14.1417V14.1417ZM8.83788 14.2444C8.83788 13.9714 8.35053 14.1334 8.83788 14.2444V14.2444ZM12.6601 16.6536C12.5872 16.4672 12.372 16.6494 12.6601 16.6536V16.6536ZM12.8436 16.7875C12.8164 16.6832 12.7376 16.8078 12.8436 16.7875V16.7875ZM14.3585 17.742C14.5041 17.6345 14.1766 17.7281 14.3585 17.742V17.742ZM6.27985 12.5505C6.69669 12.3892 5.83325 12.4355 6.27985 12.5505V12.5505ZM12.3236 16.3579C12.3188 16.0882 12.0577 16.4251 12.3236 16.3579V16.3579ZM6.11529 12.1666C6.38288 12.0764 5.86745 12.1073 6.11529 12.1666V12.1666ZM6.89207 12.543C6.88754 12.4545 6.81006 12.5769 6.89207 12.543V12.543ZM16.3694 18.3548C16.7137 18.2851 17.4984 18.53 17.6249 18.2637C17.2068 18.2534 16.1789 17.9685 16.1303 18.3313L16.2218 18.3457L16.3694 18.3548ZM7.13907 12.6053C7.1453 12.3319 6.92596 12.5951 7.13907 12.6053V12.6053ZM5.09648 11.1882C5.00369 10.6674 4.7435 11.1094 5.09648 11.1882V11.1882ZM5.5834 11.3107C5.58963 11.1433 5.13764 11.1602 5.5834 11.3107V11.3107ZM5.86175 11.4476C5.78132 11.3824 5.79905 11.5296 5.86175 11.4476V11.4476ZM7.61365 12.5711C7.69619 12.4952 7.41827 12.5151 7.61365 12.5711V12.5711ZM5.67661 11.1392C5.62921 10.7458 5.1121 11.0801 5.67661 11.1392V11.1392ZM4.67753 10.4909C4.66349 10.3095 4.58021 10.5593 4.67753 10.4909V10.4909ZM4.82636 10.3788C4.80208 10.1635 4.69853 10.406 4.82636 10.3788V10.3788ZM5.64695 10.8686C5.99412 10.7326 5.01478 10.5866 5.57601 10.8431L5.64695 10.8686ZM16.6329 17.6546C16.8551 17.451 16.3509 17.5916 16.6329 17.6546V17.6546ZM17.9602 18.3424C18.0492 18.0794 17.7359 18.3771 17.9602 18.3424V18.3424ZM5.73097 10.4386C5.7677 10.1838 5.45558 10.4893 5.73097 10.4386V10.4386ZM4.5629 9.656C4.5002 9.29648 4.50885 8.66516 5.10883 8.87838C4.30809 9.03755 5.66341 9.87408 5.49231 9.21351C5.82913 9.23009 6.15118 9.01444 5.97427 9.34134C6.63811 9.2684 7.09791 8.69281 7.73905 8.77367C8.23832 8.70727 8.78425 8.65734 9.32237 8.45616C9.76475 8.42438 10.1907 7.94812 9.94832 7.66565C9.34507 7.61457 8.71332 7.69004 8.04664 7.82283C7.30775 7.9762 6.63653 8.26806 5.89099 8.39346C5.16403 8.4912 6.03697 8.66231 5.82871 8.70062C5.44977 8.83214 6.28102 8.92081 5.77963 9.05972C5.47004 9.00082 5.14757 8.89442 5.27993 8.56783C4.5839 8.65861 3.972 8.9472 4.52205 9.65558L4.5629 9.656ZM6.24069 8.80164C6.40357 8.2005 7.1148 9.29648 6.50785 8.88165C6.43565 8.82718 6.31606 8.78306 6.24069 8.80164ZM6.27236 8.51009C6.50785 8.33487 6.39734 8.60868 6.27236 8.51009V8.51009ZM6.57129 8.51506C6.59283 8.2384 7.25624 8.66146 6.68065 8.61449L6.57129 8.51506ZM6.98032 8.3506C7.13 8.1757 7.0237 8.50556 6.98032 8.3506V8.3506ZM7.08513 8.28051C7.33414 7.98158 8.49398 8.08956 7.645 8.25117C7.41742 8.07964 7.24304 8.35218 7.08513 8.28051ZM8.59911 8.04713C8.56164 7.23024 9.35161 8.33698 8.59911 8.04713V8.04713ZM9.02882 8.0446C9.18589 7.63314 9.63862 7.8793 9.10176 7.96174C9.11327 8.00586 9.08572 8.17454 9.02882 8.0446ZM5.56155 10.2275C6.03074 9.94005 5.06344 9.97805 5.56155 10.2275V10.2275ZM5.90872 10.3235C6.07328 10.1487 5.55079 10.2526 5.90872 10.3235V10.3235ZM4.88621 9.59826C5.15422 9.39211 4.5687 9.51994 4.88621 9.59826V9.59826ZM18.7436 18.2674C18.7514 18.0282 18.5386 18.375 18.7436 18.2674V18.2674ZM17.3355 17.3062C17.3755 17.0312 17.1545 17.3302 17.3355 17.3062V17.3062ZM19.1308 18.3602C19.5056 18.3614 20.2666 18.2434 19.4511 18.2439C19.3229 18.2637 18.7053 18.2596 19.1308 18.3602ZM6.21388 10.1549C6.51735 10.1343 6.68846 9.82046 6.15488 9.83819C5.32817 9.7529 6.88426 10.1215 6.0489 10.0159C5.9368 10.0901 6.20723 10.1755 6.21388 10.1549ZM6.48104 10.2902C6.44927 10.0955 6.38699 10.3936 6.48104 10.2902V10.2902ZM6.79813 9.44489C6.92965 9.2816 6.61584 9.40119 6.79813 9.44489V9.44489ZM5.78871 7.75802C6.33052 7.57414 7.0711 7.36714 7.32675 7.84879C7.06656 7.53582 7.22162 7.22739 7.46735 7.6855C7.81494 8.14857 7.9889 7.47481 7.7629 7.31933C8.02067 7.63927 8.31337 7.79063 7.93527 7.33959C8.34641 6.84517 7.11268 7.4043 6.83233 7.39849C6.69754 7.45908 5.43953 7.71928 5.78871 7.75802ZM6.10622 7.15033C6.41507 6.91737 7.17454 7.28925 6.68719 6.91854C6.63937 6.87652 5.62014 7.19973 6.10622 7.15033ZM7.23228 7.19688C7.59349 7.20596 7.07648 6.71112 7.50693 6.93542C7.43642 6.70458 7.00555 6.6613 6.79486 6.56894C6.67569 6.78005 7.03721 7.19973 7.23228 7.19688ZM6.30371 6.17469C6.42869 6.00527 6.08437 6.26093 6.30371 6.17469V6.17469ZM6.76393 6.28478C7.34649 6.20773 6.61541 6.03409 6.64634 6.27866L6.76393 6.28478ZM5.90461 5.61271C5.49431 5.07713 6.67611 5.70265 6.25917 5.14183C5.9083 4.86275 5.57147 5.45649 5.90461 5.61271ZM11.1679 8.4475C11.356 8.11426 10.3915 7.99805 11.0413 8.32949C11.1011 8.34933 11.0876 8.47051 11.1679 8.4475Z" fill="black"/>
</svg>
