<svg width="25" height="24" viewBox="0 0 25 24" fill="none" xmlns="http://www.w3.org/2000/svg">
<path d="M12.3897 19.4C12.1913 19.4 12.0061 19.3471 11.8341 19.2545L10.0746 18.2094C9.81001 18.0638 9.94231 18.0109 10.0217 17.9845C10.3789 17.8654 10.445 17.839 10.8154 17.6273C10.8551 17.6008 10.908 17.6141 10.9477 17.6405L12.2971 18.4475C12.35 18.474 12.4162 18.474 12.4559 18.4475L17.7343 15.3915C17.7872 15.3651 17.8137 15.3122 17.8137 15.246V9.14736C17.8137 9.08121 17.7872 9.0283 17.7343 9.00184L12.4559 5.95912C12.4029 5.93266 12.3368 5.93266 12.2971 5.95912L7.01865 9.00184C6.96573 9.0283 6.93927 9.09444 6.93927 9.14736V15.246C6.93927 15.2989 6.96573 15.3651 7.01865 15.3915L8.46063 16.225C9.24116 16.6219 9.73064 16.1588 9.73064 15.6958V9.67653C9.73064 9.59715 9.79678 9.51778 9.88939 9.51778H10.5641C10.6435 9.51778 10.7228 9.58392 10.7228 9.67653V15.6958C10.7228 16.7409 10.154 17.3495 9.16178 17.3495C8.85751 17.3495 8.61938 17.3495 7.94469 17.0187L6.55563 16.225C6.21167 16.0265 6 15.6561 6 15.2593V9.16059C6 8.76371 6.21167 8.39329 6.55563 8.19486L11.8341 5.13891C12.1648 4.9537 12.6146 4.9537 12.9453 5.13891L18.2238 8.19486C18.5678 8.39329 18.7794 8.76371 18.7794 9.16059V15.2593C18.7794 15.6561 18.5678 16.0265 18.2238 16.225L12.9453 19.2809C12.7734 19.3603 12.5749 19.4 12.3897 19.4ZM14.0169 15.2063C11.7018 15.2063 11.2255 14.148 11.2255 13.2484C11.2255 13.169 11.2917 13.0897 11.3843 13.0897H12.0722C12.1516 13.0897 12.2177 13.1426 12.2177 13.222C12.3236 13.9231 12.6278 14.2671 14.0301 14.2671C15.1414 14.2671 15.6176 14.0157 15.6176 13.4204C15.6176 13.0764 15.4853 12.8251 13.7523 12.6531C12.3103 12.5076 11.4107 12.1901 11.4107 11.0391C11.4107 9.96757 12.3103 9.33257 13.8185 9.33257C15.5118 9.33257 16.3452 9.91465 16.4511 11.1847C16.4511 11.2243 16.4378 11.264 16.4114 11.3037C16.3849 11.3302 16.3452 11.3566 16.3056 11.3566H15.6176C15.5515 11.3566 15.4853 11.3037 15.4721 11.2376C15.3134 10.51 14.9033 10.2718 13.8185 10.2718C12.6014 10.2718 12.4559 10.6952 12.4559 11.0127C12.4559 11.3963 12.6278 11.5154 14.2683 11.7271C15.8955 11.9387 16.6627 12.243 16.6627 13.3807C16.6495 14.5449 15.697 15.2063 14.0169 15.2063Z" fill="#539E43"/>
</svg>
