<svg width="25" height="24" viewBox="0 0 25 24" fill="none" xmlns="http://www.w3.org/2000/svg">
<path d="M17.3073 9.66731C17.1394 9.60952 16.9654 9.55484 16.7863 9.50313C16.8157 9.38296 16.8427 9.26436 16.8668 9.14777C17.2611 7.23333 17.0033 5.69104 16.1227 5.18325C15.2784 4.69635 13.8976 5.20402 12.503 6.41769C12.3689 6.53439 12.2344 6.65795 12.1 6.78745C12.0104 6.70177 11.921 6.61897 11.8318 6.53978C10.3702 5.24205 8.90522 4.69517 8.02554 5.20442C7.18201 5.69274 6.93221 7.14263 7.28722 8.95697C7.3215 9.13221 7.36158 9.31117 7.40689 9.49313C7.19955 9.55199 6.99939 9.61473 6.80787 9.68148C5.09434 10.2789 4 11.2152 4 12.1864C4 13.1894 5.17477 14.1955 6.95955 14.8055C7.10039 14.8536 7.24654 14.8992 7.39715 14.9424C7.34827 15.1392 7.30574 15.332 7.27005 15.5201C6.93154 17.303 7.19589 18.7186 8.03717 19.2038C8.90614 19.7049 10.3645 19.1899 11.7846 17.9485C11.8968 17.8504 12.0095 17.7464 12.1223 17.6373C12.2686 17.7781 12.4146 17.9114 12.5599 18.0365C13.9354 19.2201 15.2939 19.6981 16.1344 19.2115C17.0025 18.709 17.2847 17.1882 16.9184 15.338C16.8904 15.1967 16.8578 15.0523 16.8213 14.9054C16.9237 14.8751 17.0242 14.8439 17.1223 14.8114C18.9777 14.1966 20.1849 13.2028 20.1849 12.1864C20.1849 11.2117 19.0553 10.2691 17.3073 9.66731ZM16.9048 14.1551C16.8163 14.1844 16.7255 14.2127 16.633 14.2402C16.4282 13.5917 16.1517 12.9022 15.8134 12.1897C16.1362 11.4943 16.402 10.8136 16.6011 10.1693C16.7667 10.2172 16.9274 10.2677 17.0822 10.3211C18.5799 10.8367 19.4935 11.599 19.4935 12.1864C19.4935 12.812 18.5069 13.6243 16.9048 14.1551ZM16.2401 15.4723C16.4021 16.2904 16.4252 17.0301 16.3179 17.6084C16.2215 18.128 16.0277 18.4744 15.788 18.6132C15.2779 18.9084 14.1871 18.5246 13.0108 17.5123C12.8759 17.3963 12.7401 17.2724 12.6038 17.1413C13.0599 16.6425 13.5157 16.0626 13.9605 15.4187C14.7429 15.3492 15.4821 15.2357 16.1525 15.0808C16.1855 15.214 16.2148 15.3446 16.2401 15.4723ZM9.51781 18.5621C9.01947 18.7381 8.62257 18.7432 8.38265 18.6048C7.87213 18.3104 7.65989 17.1737 7.94939 15.6491C7.98255 15.4744 8.02202 15.2951 8.06751 15.1117C8.73052 15.2584 9.46431 15.3639 10.2486 15.4274C10.6964 16.0576 11.1654 16.6368 11.638 17.1439C11.5347 17.2436 11.4319 17.3385 11.3296 17.4279C10.7017 17.9768 10.0724 18.3663 9.51781 18.5621ZM7.18316 14.1513C6.39397 13.8815 5.74222 13.5309 5.29548 13.1484C4.89406 12.8046 4.69139 12.4633 4.69139 12.1864C4.69139 11.597 5.57003 10.8453 7.03546 10.3344C7.21327 10.2724 7.3994 10.214 7.59257 10.1591C7.79509 10.8179 8.06077 11.5067 8.38138 12.2032C8.05662 12.91 7.78717 13.6098 7.58266 14.2763C7.44495 14.2368 7.31153 14.1951 7.18316 14.1513ZM7.96576 8.82419C7.66159 7.26971 7.8636 6.09707 8.37193 5.80282C8.9134 5.48935 10.1107 5.93629 11.3727 7.05681C11.4533 7.12843 11.5343 7.20339 11.6155 7.28095C11.1453 7.78588 10.6806 8.36074 10.2368 8.98716C9.47558 9.05771 8.74694 9.17105 8.07702 9.32281C8.0349 9.15339 7.99759 8.98693 7.96576 8.82419ZM14.9472 10.5481C14.7871 10.2715 14.6226 10.0014 14.455 9.73867C14.9714 9.80395 15.4662 9.89061 15.9308 9.99665C15.7913 10.4437 15.6175 10.9111 15.4128 11.3903C15.266 11.1116 15.1107 10.8306 14.9472 10.5481ZM12.1002 7.77508C12.4191 8.12058 12.7385 8.50634 13.0526 8.92487C12.7361 8.90992 12.4156 8.90214 12.0925 8.90214C11.7724 8.90214 11.4543 8.90975 11.1397 8.92444C11.4541 8.50979 11.7763 8.12456 12.1002 7.77508ZM9.23494 10.5529C9.07496 10.8303 8.92256 11.1098 8.77806 11.3898C8.57671 10.9123 8.40446 10.4427 8.26376 9.98934C8.72554 9.886 9.21797 9.8015 9.73108 9.73746C9.56111 10.0026 9.39534 10.2747 9.23494 10.5528V10.5529ZM9.74586 14.6846C9.21572 14.6254 8.71589 14.5453 8.25422 14.4448C8.39717 13.9833 8.57322 13.5037 8.77883 13.0159C8.92371 13.2958 9.07672 13.5754 9.23767 13.8534H9.2377C9.40165 14.1366 9.57151 14.414 9.74586 14.6846ZM12.1193 16.6464C11.7916 16.2928 11.4648 15.9017 11.1455 15.481C11.4554 15.4932 11.7714 15.4994 12.0925 15.4994C12.4224 15.4994 12.7485 15.492 13.0695 15.4777C12.7543 15.906 12.4361 16.2977 12.1193 16.6464ZM15.4194 12.9911C15.6357 13.4842 15.8181 13.9612 15.9629 14.4149C15.4936 14.5219 14.987 14.6081 14.4531 14.6722C14.6211 14.406 14.787 14.1312 14.95 13.8486C15.1148 13.5627 15.2714 13.2764 15.4194 12.9911ZM14.3511 13.5032C14.0981 13.9419 13.8383 14.3607 13.5746 14.756C13.0944 14.7903 12.5982 14.808 12.0925 14.808C11.5888 14.808 11.0989 14.7923 10.6271 14.7617C10.3528 14.3612 10.0874 13.9412 9.83601 13.507H9.83606C9.58534 13.0739 9.35458 12.6372 9.14548 12.203C9.35452 11.7677 9.58468 11.3305 9.83396 10.8982L9.8339 10.8983C10.0839 10.4649 10.3469 10.0469 10.6187 9.64893C11.1 9.61254 11.5936 9.59356 12.0924 9.59356H12.0925C12.5935 9.59356 13.0878 9.61269 13.569 9.64939C13.8366 10.0444 14.0979 10.4611 14.3488 10.8945C14.6026 11.3329 14.8357 11.7672 15.0465 12.1931C14.8363 12.6264 14.6037 13.0651 14.3511 13.5032ZM15.7774 5.78225C16.3194 6.09479 16.5301 7.3553 16.1896 9.00822C16.1679 9.11369 16.1434 9.22112 16.1169 9.32998C15.4454 9.17505 14.7162 9.05976 13.9528 8.98814C13.5081 8.35483 13.0472 7.77908 12.5846 7.28063C12.709 7.16099 12.8332 7.0469 12.9569 6.93924C14.1518 5.89938 15.2685 5.48883 15.7774 5.78225ZM12.0925 10.7411C12.8907 10.7411 13.5377 11.3882 13.5377 12.1864C13.5377 12.9845 12.8907 13.6316 12.0925 13.6316C11.2943 13.6316 10.6472 12.9845 10.6472 12.1864C10.6472 11.3882 11.2943 10.7411 12.0925 10.7411Z" fill="#00D8FF"/>
</svg>
